<svg version="1.1" xmlns="http://www.w3.org/2000/svg" xmlns:xlink="http://www.w3.org/1999/xlink" width="120px" height="120px" viewBox="0,0,256,256"><g fill="none" fill-rule="nonzero" stroke="none" stroke-width="none" stroke-linecap="none" stroke-linejoin="none" stroke-miterlimit="none" stroke-dasharray="" stroke-dashoffset="0" font-family="none" font-weight="none" font-size="none" text-anchor="none" style="mix-blend-mode: normal"><g transform="scale(5.33333,5.33333)"><circle cx="28" cy="18.026" r="8.046" fill="#01a4a9" stroke="none" stroke-width="1" stroke-linecap="butt" stroke-linejoin="miter" stroke-miterlimit="10"></circle><path d="M38.228,33h-20.456c-2.152,0 -3.896,1.791 -3.896,4c0,12 28.248,12 28.248,0h0.001c0,-2.209 -1.745,-4 -3.897,-4z" fill="#01a4a9" stroke="none" stroke-width="1" stroke-linecap="butt" stroke-linejoin="miter" stroke-miterlimit="10"></path><path d="M21.388,5.909c0.823,-0.266 1.701,-0.409 2.612,-0.409c4.694,0 8.5,3.806 8.5,8.5c0,4.694 -3.806,8.5 -8.5,8.5c-4.694,0 -8.5,-3.806 -8.5,-8.5" fill="none" stroke="#18193f" stroke-width="3" stroke-linecap="round" stroke-linejoin="round" stroke-miterlimit="5"></path><path d="M32.191,29.5h2.31c2.209,0 4,1.791 4,4v0h-0.001c0,12 -29,12 -29,0v0c0,-2.209 1.791,-4 4,-4h11.798" fill="none" stroke="#18193f" stroke-width="3" stroke-linecap="round" stroke-linejoin="round" stroke-miterlimit="10"></path></g></g></svg>